# AST/ASF file generated using VICON BodyLanguage
# -----------------------------------------------
:version 1.10
:name VICON
:units
  mass 1.0
  length 0.45
  angle deg
:documentation
   .ast/.asf automatically generated from VICON data using
   VICON BodyBuilder and BodyLanguage model FoxedUp or BRILLIANT.MOD
:root
   order TX TY TZ RX RY RZ
   axis XYZ
   position 0 0 0  
   orientation 0 0 0 
:bonedata
  begin
     id 1 
     name lhipjoint
     direction 0.643824 -0.71708 0.266994 
     length 2.52133 
     axis 0 0 0  XYZ
  end
  begin
     id 2 
     name lfemur
     direction 0.34202 -0.939693 0  
     length 7.51824  
     axis 0 0 20  XYZ
    dof rx ry rz
    limits (-160.0 20.0)
           (-70.0 70.0)
           (-60.0 70.0)
  end
  begin
     id 3 
     name ltibia
     direction 0.34202 -0.939693 0   
     length 7.3685   
     axis 0 0 20   XYZ
    dof rx
    limits (-10.0 170.0)
  end
  begin
     id 4 
     name lfoot
     direction 0.105419 -0.289636 0.951314   
     length 2.20972   
     axis -90 7.62852e-016 20   XYZ
    dof rx rz
    limits (-45.0 90.0)
           (-70.0 20.0)
  end
  begin
     id 5 
     name ltoes
     direction 1.53549e-011 -4.21833e-011 1   
     length 1.10139   
     axis -90 7.62852e-016 20   XYZ
    dof rx
    limits (-90.0 20.0)
  end
  begin
     id 6 
     name rhipjoint
     direction -0.608823 -0.743445 0.276811   
     length 2.43192  
     axis 0 0 0  XYZ 
  end
  begin
     id 7 
     name rfemur
     direction -0.34202 -0.939693 0   
     length 7.69715   
     axis 0 0 -20   XYZ
    dof rx ry rz
    limits (-160.0 20.0)
           (-70.0 70.0)
           (-70.0 60.0)
  end
  begin
     id 8 
     name rtibia
     direction -0.34202 -0.939693 0   
     length 7.44924   
     axis 0 0 -20   XYZ
    dof rx
    limits (-10.0 170.0)
 end
 begin
     id 9 
     name rfoot
     direction -0.103614 -0.284677 0.953007   
     length 2.22623  
     axis -90 -7.62852e-016 -20   XYZ
    dof rx rz
    limits (-45.0 90.0)
           (-20.0 70.0)
  end
  begin
     id 10 
     name rtoes
     direction -1.53537e-011 -4.22026e-011 1   
     length 1.11   
     axis -90 -7.62852e-016 -20   XYZ
    dof rx
    limits (-90.0 20.0)
  end
  begin
     id 11 
     name lowerback
     direction -0.0101212 0.99662 -0.0815298   
     length 2.08277   
     axis 0 0 0   XYZ
    dof rx ry rz
    limits (-20.0 45.0)
           (-30.0 30.0)
           (-30.0 30.0)
  end
  begin
     id 12 
     name upperback
     direction 0.024314 0.999591 -0.0150645   
     length 2.08524   
     axis 0 0 0   XYZ
    dof rx ry rz
    limits (-20.0 45.0)
           (-30.0 30.0)
           (-30.0 30.0)
  end
  begin
     id 13 
     name thorax
     direction 0.0285959 0.999323 0.0231357   
     length 2.09645   
     axis 0 0 0   XYZ
    dof rx ry rz
    limits (-20.0 45.0)
           (-30.0 30.0)
           (-30.0 30.0)
  end
  begin
     id 14 
     name lowerneck
     direction -0.065512 0.979301 0.191515   
     length 1.63798   
     axis 0 0 0   XYZ
    dof rx ry rz
    limits (-20.0 45.0)
           (-30.0 30.0)
           (-30.0 30.0)
  end
  begin
     id 15 
     name upperneck
     direction 0.0498479 0.98191 -0.182667   
     length 1.68731   
     axis 0 0 0   XYZ
    dof rx ry rz
    limits (-20.0 45.0)
           (-30.0 30.0)
           (-30.0 30.0)
  end
  begin
     id 16
     name head
     direction 0.0230358 0.996257 -0.0833175  
     length 1.69785  
     axis 0 0 0   XYZ
    dof rx ry rz
    limits (-20.0 45.0)
           (-30.0 30.0)
           (-30.0 30.0)
  end
  begin
     id 17 
     name lclavicle
     direction 0.967963 0.201165 -0.150269  
     length 3.63976  
     axis 0 0 0   XYZ
    dof ry rz
    limits (-20.0 10.0)
           (0.0 20.0)
  end
  begin
     id 18 
     name lhumerus
     direction 1 -4.48954e-011 -2.92837e-028   
     length 5.32462   
     axis 180 -30 -90   XYZ
    dof rx ry rz
    limits (-60.0 90.0)
           (-90.0 90.0)
           (-90.0 90.0)
  end
  begin
     id 19
     name lradius
     direction 1 -4.48958e-011 -6.39511e-027   
     length 3.48402   
     axis 180 -30 -90   XYZ
    dof rx
    limits (-10.0 170.0)
  end
  begin
     id 20
     name lwrist
     direction 1 -4.48975e-011 -1.1413e-026   
     length 1.74201   
     axis 6.88575e-015 90 90   XYZ
    dof ry
    limits (-180.0 0.0)
 end
  begin
     id 21 
     name lhand
     direction 1 -4.48899e-011 -2.28192e-026   
     length 0.572476   
     axis 1.45643e-014 90 90   XYZ
    dof rx rz
    limits (-90.0 90.0)
           (-45.0 45.0)
  end
  begin
     id 22 
     name lfingers
     direction 1 -4.49155e-011 -4.5684e-026   
     length 0.461545   
     axis 2.91283e-014 90 90   XYZ
    dof rx
    limits (0.0 90.0)
  end
  begin
     id 23
     name lthumb
     direction 0.707107 -6.34943e-011 0.707107   
     length 0.662688   
     axis -90 45 -2.25915e-014   XYZ
    dof rx rz
    limits (-45.0 45.0)
           (-45.0 45.0)
  end
  begin
     id 24 
     name rclavicle
     direction -0.964103 0.264019 -0.0282629   
     length 3.54491  
     axis 0 0 0   XYZ 
    dof ry rz
    limits (-10.0 20.0)
           (-20.0 0.0)
  end
  begin
     id 25 
     name rhumerus
     direction -1 -4.48964e-011 -2.45032e-027  
     length 5.33589   
     axis 180 30 90   XYZ
    dof rx ry rz
    limits (-90.0 60.0)
           (-90.0 90.0)
           (-90.0 90.0)
  end
  begin
     id 26 
     name rradius
     direction -1 -4.48987e-011 -1.55093e-027   
     length 3.64134   
     axis 180 30 90   XYZ
    dof rx
    limits (-10.0 170.0)
  end
  begin
     id 27 
     name rwrist
     direction -1 -4.4897e-011 -1.14128e-026   
     length 1.82067   
     axis 6.88575e-015 -90 -90   XYZ
    dof ry
    limits (-180.0 0.0)
  end
  begin
     id 28
     name rhand
     direction -1 -4.49021e-011 -2.28301e-026   
     length 0.734811   
     axis 1.45643e-014 -90 -90   XYZ
    dof rx rz
    limits (-90.0 90.0)
           (-45.0 45.0)
  end
  begin
     id 29
     name rfingers
     direction -1 -4.48862e-011 -4.56319e-026   
     length 0.592424   
     axis 2.91283e-014 -90 -90   XYZ
    dof rx
    limits (0.0 90.0)
  end
  begin
     id 30
     name rthumb
     direction -0.707107 -6.34978e-011 0.707107   
     length 0.850605   
     axis -90 -45 2.25915e-014   XYZ
    dof rx rz
    limits (-45.0 45.0)
           (-45.0 45.0)
  end
:hierarchy
  begin
    root lhipjoint rhipjoint lowerback
    lhipjoint lfemur
    lfemur ltibia
    ltibia lfoot
    lfoot ltoes
    rhipjoint rfemur
    rfemur rtibia
    rtibia rfoot
    rfoot rtoes
    lowerback upperback
    upperback thorax
    thorax lowerneck lclavicle rclavicle
    lowerneck upperneck
    upperneck head
    lclavicle lhumerus
    lhumerus lradius
    lradius lwrist
    lwrist lhand lthumb
    lhand lfingers
    rclavicle rhumerus
    rhumerus rradius
    rradius rwrist
    rwrist rhand rthumb
    rhand rfingers
  end

#!OML:ASF F:\VICON\USERDATA\INSTALL\rory3\rory3.ASF
:FULLY-SPECIFIED
:DEGREES
206
root -1.34863 19.0995 4.37366 -1.76118 -66.9283 3.64302
lowerback 2.20987 -1.72153 -0.189059
upperback -2.43514 -2.97604 -9.97732
thorax -4.3505 -1.80681 -10.3505
lowerneck -45.4615 -8.02286 -1.89719
upperneck -7.45309 -11.6649 15.6667
head 4.89644 -4.63769 3.95779
rclavicle 1.39149e-014 2.54444e-014
rhumerus 109.394 -32.6471 -68.2996
rradius 23.2202
rwrist 26.9518
rhand -32.0309 -8.7582
rfingers 7.12502
rthumb -5.27853 -38.6725
lclavicle 1.39149e-014 2.54444e-014
lhumerus 98.8434 41.9894 16.7225
lradius 29.8311
lwrist -0.776523
lhand -15.6475 28.7171
lfingers 7.12502
lthumb 10.5402 58.4328
rfemur -6.92666 7.45874 19.7605
rtibia 31.2968
rfoot -1.64701 -17.3948
rtoes 13.5501
lfemur -13.0464 -7.02173 -8.91628
ltibia 37.4698
lfoot 10.1849 -16.4001
ltoes -9.79217
207
root -1.35283 19.1269 4.38173 -1.98418 -67.0908 3.88882
lowerback 2.30206 -1.72885 -0.133471
upperback -2.34227 -2.99894 -10.1646
thorax -4.32535 -1.82666 -10.5939
lowerneck -45.6691 -7.94876 -1.63845
upperneck -7.42277 -11.7348 15.791
head 4.93176 -4.65858 3.94961
rclavicle -1.35174e-014 -4.45278e-014
rhumerus 109.697 -32.8549 -68.695
rradius 23.3994
rwrist 27.0855
rhand -32.0248 -8.68031
rfingers 7.12502
rthumb -5.2727 -38.5947
lclavicle -1.35174e-014 -4.45278e-014
lhumerus 99.84 42.0431 17.7137
lradius 29.7884
lwrist -0.501535
lhand -15.5514 29.0403
lfingers 7.12502
lthumb 10.6329 58.7512
rfemur -7.20762 7.34186 19.5832
rtibia 31.4531
rfoot -0.839976 -17.5111
rtoes 13.5258
lfemur -13.1448 -7.04221 -8.88868
ltibia 37.3477
lfoot 8.47347 -16.0592
ltoes -11.1225
208
root -1.35766 19.1458 4.39006 -2.28467 -67.2349 4.23723
lowerback 2.2979 -2.06275 -0.0940829
upperback -2.43538 -3.45226 -10.0595
thorax -4.50083 -2.06088 -10.4644
lowerneck -45.2666 -7.70917 -1.94061
upperneck -7.51259 -11.3382 16.1947
head 4.93288 -4.45489 4.16416
rclavicle 6.1822e-014 7.95139e-014
rhumerus 110.065 -31.9548 -69.0541
rradius 23.6204
rwrist 26.9643
rhand -31.8873 -8.27207
rfingers 7.12502
rthumb -5.13987 -38.1897
lclavicle 6.1822e-014 7.95139e-014
lhumerus 98.9615 42.3827 17.2154
lradius 29.7963
lwrist -0.0223907
lhand -15.4454 29.6558
lfingers 7.12502
lthumb 10.7351 59.3616
rfemur -7.47653 7.14631 19.3654
rtibia 31.6455
rfoot -0.37131 -17.38
rtoes 13.8478
lfemur -13.2568 -7.21618 -8.87292
ltibia 37.2184
lfoot 7.19988 -15.3141
ltoes -10.7533
209
root -1.3618 19.1504 4.39871 -2.52439 -67.3462 4.48273
lowerback 2.32905 -2.22788 -0.151896
upperback -2.39059 -3.67713 -10.0526
thorax -4.50842 -2.17195 -10.4034
lowerneck -45.406 -7.40624 -1.69318
upperneck -7.29938 -11.1162 16.1354
head 4.9831 -4.34498 4.14414
rclavicle -3.55825e-014 1.59028e-014
rhumerus 110.358 -31.6327 -69.2516
rradius 23.7661
rwrist 26.8771
rhand -31.7443 -8.13893
rfingers 7.12502
rthumb -5.0018 -38.0599
lclavicle -3.55825e-014 1.59028e-014
lhumerus 99.1944 42.5377 17.7034
lradius 29.7306
lwrist 0.205708
lhand -15.6023 29.8526
lfingers 7.12502
lthumb 10.5838 59.5661
rfemur -7.68588 6.85475 19.2334
rtibia 31.8457
rfoot -0.408284 -17.1932
rtoes 13.6883
lfemur -13.3532 -7.10511 -8.81044
ltibia 37.0633
lfoot 6.13722 -14.8018
ltoes -11.1114
210
root -1.36741 19.1414 4.40944 -2.78277 -67.4256 4.70528
lowerback 2.40575 -2.21312 -0.297544
upperback -2.25166 -3.66174 -10.1278
thorax -4.39854 -2.15645 -10.4003
lowerneck -45.8215 -7.23441 -1.32988
upperneck -6.9204 -11.1086 15.9168
head 5.07294 -4.32898 4.05078
rclavicle -7.51406e-014 1.01778e-013
rhumerus 110.384 -31.9897 -68.999
rradius 23.8681
rwrist 26.6037
rhand -31.7172 -8.60874
rfingers 7.12502
rthumb -4.97566 -38.5303
lclavicle -7.51406e-014 1.01778e-013
lhumerus 100.575 42.3766 19.3844
lradius 29.6092
lwrist -0.0277819
lhand -15.7818 29.9002
lfingers 7.12502
lthumb 10.4106 59.6224
rfemur -7.78157 6.66407 19.1341
rtibia 31.9874
rfoot -1.38102 -17.3214
rtoes 13.94
lfemur -13.3967 -6.98025 -8.75141
ltibia 36.8804
lfoot 5.37595 -14.111
ltoes -10.6542
211
root -1.37447 19.1227 4.42091 -2.90225 -67.4696 4.77084
lowerback 2.53938 -2.00711 -0.437154
upperback -2.08028 -3.39287 -10.2754
thorax -4.24678 -2.01411 -10.5011
lowerneck -46.0913 -7.27542 -0.945711
upperneck -6.7321 -11.3378 15.6355
head 5.13055 -4.4454 3.85501
rclavicle 2.74323e-014 -8.5875e-014
rhumerus 109.981 -33.0601 -68.2193
rradius 23.9939
rwrist 25.9411
rhand -31.6892 -8.96974
rfingers 7.12502
rthumb -4.94861 -38.892
lclavicle 2.74323e-014 -8.5875e-014
lhumerus 102.793 41.8271 21.9154
lradius 29.4605
lwrist -0.647789
lhand -15.8629 30.1212
lfingers 7.12502
lthumb 10.3324 59.8474
rfemur -7.80986 6.70516 19.1535
rtibia 32.0253
rfoot -2.89119 -18.0059
rtoes 14.5189
lfemur -13.4247 -7.0706 -8.63199
ltibia 36.7008
lfoot 4.84967 -13.0946
ltoes -9.80529
212
root -1.38238 19.0934 4.43282 -2.87595 -67.4985 4.68296
lowerback 2.59175 -2.06774 -0.480292
upperback -2.02229 -3.46952 -10.226
thorax -4.22253 -2.04678 -10.411
lowerneck -45.8757 -7.05127 -0.707683
upperneck -6.68106 -11.1626 15.46
head 5.08782 -4.39029 3.7872
rclavicle 2.70347e-014 3.49861e-014
rhumerus 110.173 -32.8598 -68.323
rradius 23.9557
rwrist 25.7706
rhand -31.7335 -8.98326
rfingers 7.12502
rthumb -4.99145 -38.9045
lclavicle 2.70347e-014 3.49861e-014
lhumerus 103.453 41.5991 23.1165
lradius 29.4973
lwrist -1.12415
lhand -15.7179 30.5094
lfingers 7.12502
lthumb 10.4723 60.2286
rfemur -7.82 6.90126 19.2586
rtibia 31.9522
rfoot -4.48911 -18.8163
rtoes 15.0075
lfemur -13.4625 -7.13395 -8.48473
ltibia 36.5156
lfoot 4.32556 -12.0657
ltoes -10.8267
213
root -1.39188 19.0485 4.44609 -2.93484 -67.4413 4.63934
lowerback 2.63033 -2.13374 -0.527663
upperback -1.94578 -3.54662 -10.1404
thorax -4.16739 -2.07631 -10.2775
lowerneck -45.6144 -6.87585 -0.565822
upperneck -6.57445 -10.9861 15.1979
head 5.05613 -4.33709 3.70303
rclavicle 3.97569e-016 5.08889e-014
rhumerus 110.547 -32.4226 -68.6533
rradius 23.8597
rwrist 25.9789
rhand -31.6066 -8.96875
rfingers 7.12502
rthumb -4.86887 -38.8928
lclavicle 3.97569e-016 5.08889e-014
lhumerus 104.055 41.3252 24.3734
lradius 29.54
lwrist -1.44991
lhand -15.7806 30.4396
lfingers 7.12502
lthumb 10.4118 60.1618
rfemur -7.76142 7.00437 19.3167
rtibia 31.8021
rfoot -6.0159 -19.1453
rtoes 16.0443
lfemur -13.4881 -7.10597 -8.37868
ltibia 36.3478
lfoot 4.04237 -11.1419
ltoes -11.6625
214
root -1.40165 18.9938 4.46066 -3.04473 -67.2795 4.66977
lowerback 2.61793 -2.23318 -0.557169
upperback -1.83059 -3.66602 -10.1082
thorax -4.05499 -2.12829 -10.2143
lowerneck -45.3331 -6.74547 -0.467636
upperneck -6.47791 -10.8563 15.0573
head 5.03789 -4.29493 3.65886
rclavicle -1.17283e-014 2.8625e-014
rhumerus 110.542 -32.5196 -68.449
rradius 23.8904
rwrist 25.5306
rhand -31.1652 -8.8836
rfingers 7.12502
rthumb -4.4427 -38.817
lclavicle -1.17283e-014 2.8625e-014
lhumerus 104.625 41.104 25.4566
lradius 29.5056
lwrist -1.49648
lhand -15.9989 30.0221
lfingers 7.12502
lthumb 10.2012 59.7548
rfemur -7.68723 6.99136 19.3229
rtibia 31.707
rfoot -7.80463 -18.8283
rtoes 16.5791
lfemur -13.5606 -6.9646 -8.31064
ltibia 36.1617
lfoot 3.90165 -10.3771
ltoes -11.4498
215
root -1.41064 18.9267 4.47734 -2.74357 -67.0775 4.23207
lowerback 2.59328 -2.41781 -0.371691
upperback -1.70666 -3.887 -10.0529
thorax -3.95692 -2.23664 -10.2465
lowerneck -45.0814 -6.5408 -0.337992
upperneck -6.28935 -10.6739 15.0203
head 5.06029 -4.2112 3.65352
rclavicle 9.54166e-015 -1.90833e-014
rhumerus 109.902 -33.1838 -67.4175
rradius 24.1728
rwrist 24.0858
rhand -30.722 -8.856
rfingers 7.12502
rthumb -4.01464 -38.7979
lclavicle 9.54166e-015 -1.90833e-014
lhumerus 104.832 40.9737 26.1262
lradius 29.5394
lwrist -1.47593
lhand -16.223 29.9342
lfingers 7.12502
lthumb 9.98505 59.6774
rfemur -7.54109 6.66841 19.534
rtibia 31.7706
rfoot -9.38838 -18.109
rtoes 14.5207
lfemur -13.6118 -6.80979 -8.05756
ltibia 35.9409
lfoot 3.59295 -10.0478
ltoes -11.8853
